<svg id="Layer_1" data-name="Layer 1" xmlns="http://www.w3.org/2000/svg" viewBox="0 0 385.24 410.57"><title>cooking</title><path d="M353.94,17.07A10,10,0,0,1,368.08,2.93l1.35,1.34a10,10,0,1,1-14.14,14.14l-1.35-1.34Zm-1.35,111.36a28.92,28.92,0,1,1-28.92,28.92A29,29,0,0,1,352.59,128.43Zm0,20a8.92,8.92,0,1,0,8.92,8.92A8.93,8.93,0,0,0,352.59,148.43ZM397.9,273.34v12a28.36,28.36,0,0,1-28.33,28.33h-8.33v53.92a43,43,0,0,1-43,43H92.32a43,43,0,0,1-43-43V313.66H41a28.36,28.36,0,0,1-28.33-28.33v-12A28.36,28.36,0,0,1,41,245h8.33V215.46a10,10,0,0,1,10-10H351.24a10,10,0,0,1,10,10V245h8.33A28.36,28.36,0,0,1,397.9,273.34ZM49.33,265H41a8.34,8.34,0,0,0-8.33,8.33v12A8.34,8.34,0,0,0,41,293.66h8.33V265Zm291.92-39.55H69.33V367.58a23,23,0,0,0,23,23H318.25a23,23,0,0,0,23-23V225.46Zm36.66,47.88a8.34,8.34,0,0,0-8.33-8.33h-8.33v28.65h8.33a8.34,8.34,0,0,0,8.33-8.33v-12ZM326.24,80.15a10,10,0,0,0,7.07-2.93l1.35-1.35a10,10,0,1,0-14.14-14.15l-1.35,1.35a10,10,0,0,0,7.07,17.07ZM243.36,185.69a10,10,0,0,0,20,0,14.33,14.33,0,1,1,28.65,0,10,10,0,0,0,20,0,34.33,34.33,0,1,0-68.65,0Zm-186.78-15a10,10,0,0,1,7.43-12L172.65,133l-1.92-8.11A28.36,28.36,0,0,1,191.78,90.8L203.45,88a28.37,28.37,0,0,1,34.09,21.05l1.92,8.11L348.09,91.52A10,10,0,0,1,352.7,111L68.61,178.15a10,10,0,0,1-12-7.43Zm133.61-50.43,1.92,8.11L220,121.81l-1.92-8.11a8.33,8.33,0,0,0-10-6.19l-11.67,2.76A8.34,8.34,0,0,0,190.19,120.29Z" transform="translate(-12.66 0)"/></svg>