<svg id="Capa_1" data-name="Capa 1" xmlns="http://www.w3.org/2000/svg" viewBox="0 0 238.95 480.38"><title>knife</title><path d="M192.71,0h-32a40,40,0,0,0-40,40v78a118.78,118.78,0,0,0,12.46,52.8,102.4,102.4,0,0,1,10.74,48.62l-6.4,220.38a39.2,39.2,0,1,0,78.35,2.74q0-1.37,0-2.74l-6.4-220.35a102.35,102.35,0,0,1,10.74-48.6A118.77,118.77,0,0,0,232.71,118V40A40,40,0,0,0,192.71,0Zm24,118a102.62,102.62,0,0,1-10.78,45.65,118.4,118.4,0,0,0-12.42,56.22l6.4,220.32a23,23,0,0,1-6.58,16.8,23.74,23.74,0,0,1-33.22,0,23,23,0,0,1-6.61-16.77l6.4-220.34a118.41,118.41,0,0,0-12.42-56.23A102.64,102.64,0,0,1,136.71,118V40a24,24,0,0,1,16-22.53V112h16V16h16v96h16V17.47a24,24,0,0,1,16,22.53v78Z" transform="translate(-120.71 0)"/><path d="M352.71,239.84V8a8,8,0,0,0-8-8,66.78,66.78,0,0,0-62.29,42.17,243.74,243.74,0,0,0-3.2,172.57l9.47,26.51-6.85,198.5a38.92,38.92,0,1,0,77.79,2.73q0-1.37,0-2.73ZM297.28,48.11a50.83,50.83,0,0,1,39.43-31.5V232h-34.4l-8.09-22.64A227.7,227.7,0,0,1,297.28,48.11ZM337.19,457a23.46,23.46,0,0,1-33,0,22.76,22.76,0,0,1-6.4-16.72L304.44,248H337l6.63,192.29A22.76,22.76,0,0,1,337.19,457Z" transform="translate(-120.71 0)"/></svg>