<svg id="Capa_1" data-name="Capa 1" xmlns="http://www.w3.org/2000/svg" viewBox="0 0 57.99 58.15"><title>time</title><path d="M40.08,29.15H32.93a4,4,0,0,0-2.86-2.86V16.15a1,1,0,0,0-2,0V26.3a4,4,0,1,0,4.86,4.86h7.14a1,1,0,0,0,0-2Zm-11,3a2,2,0,1,1,2-2A2,2,0,0,1,29.08,32.15Z" transform="translate(-0.08 0)"/><path d="M50.19,9.76l4.1,4.1a1,1,0,0,0,1.41,0A8.12,8.12,0,0,0,44.21,2.38a1,1,0,0,0,0,1.41l4.56,4.56L47.08,10a26.93,26.93,0,0,0-36,0l-1.7-1.7,4.56-4.56a1,1,0,0,0,0-1.41A8.12,8.12,0,0,0,2.45,13.86a1,1,0,0,0,1.41,0L8,9.76l1.68,1.68a27,27,0,0,0,5.76,42l-3,3a1,1,0,1,0,1.41,1.41l3.45-3.45a26.94,26.94,0,0,0,23.69,0l3.45,3.45a1,1,0,0,0,1.41-1.41l-3-3a27,27,0,0,0,5.76-42Zm4.1-6a6.13,6.13,0,0,1,.65,7.89L46.39,3.14A6.13,6.13,0,0,1,54.28,3.79ZM3.22,11.68a6.12,6.12,0,0,1,8.54-8.54ZM29.08,55.15a25,25,0,1,1,25-25A25,25,0,0,1,29.08,55.15Z" transform="translate(-0.08 0)"/><path d="M49,18.61a23.16,23.16,0,0,0-8.34-8.34l0,0-.06,0a22.91,22.91,0,0,0-22.89,0l-.06,0,0,0A23.16,23.16,0,0,0,9.2,18.61l0,0a.5.5,0,0,0,0,.06,22.91,22.91,0,0,0,0,22.89s0,0,0,.06l.05.07A23.18,23.18,0,0,0,17.53,50l0,0,.08,0a22.92,22.92,0,0,0,22.84,0l.08,0,0,0a23.17,23.17,0,0,0,8.33-8.31l.05-.07a.51.51,0,0,0,0-.06,22.91,22.91,0,0,0,0-22.89s0,0,0-.06ZM40.42,47.8,39.94,47a1,1,0,1,0-1.73,1l.48.83a20.84,20.84,0,0,1-8.61,2.3v-.95a1,1,0,0,0-2,0v.95a20.82,20.82,0,0,1-8.61-2.3l.48-.83a1,1,0,1,0-1.73-1l-.48.83a21.13,21.13,0,0,1-6.3-6.3l.83-.48a1,1,0,0,0-1-1.73l-.83.48a20.84,20.84,0,0,1-2.3-8.61h.95a1,1,0,0,0,0-2h-1a20.84,20.84,0,0,1,2.3-8.61l.83.48a1,1,0,1,0,1-1.73l-.83-.48a21.14,21.14,0,0,1,6.3-6.3l.48.83a1,1,0,1,0,1.73-1l-.48-.83a20.84,20.84,0,0,1,8.61-2.3v.95a1,1,0,1,0,2,0V9.2a20.82,20.82,0,0,1,8.61,2.3l-.48.83a1,1,0,1,0,1.73,1l.48-.83a21.13,21.13,0,0,1,6.3,6.3l-.83.48a1,1,0,1,0,1,1.73l.83-.48A20.84,20.84,0,0,1,50,29.15h-.95a1,1,0,0,0,0,2H50a20.84,20.84,0,0,1-2.3,8.61l-.83-.48a1,1,0,1,0-1,1.73l.83.48A21.09,21.09,0,0,1,40.42,47.8Z" transform="translate(-0.08 0)"/></svg>